# Blender v2.78 (sub 0) OBJ File: ''
# www.blender.org
mtllib Cone.mtl
o Cone
v 0.000000 -1.000000 -1.000000
v 0.195090 -1.000000 -0.980785
v 0.382683 -1.000000 -0.923880
v 0.555570 -1.000000 -0.831470
v 0.707107 -1.000000 -0.707107
v 0.831470 -1.000000 -0.555570
v 0.923880 -1.000000 -0.382683
v 0.980785 -1.000000 -0.195090
v 1.000000 -1.000000 -0.000000
v 0.000000 1.000000 0.000000
v 0.980785 -1.000000 0.195090
v 0.923880 -1.000000 0.382683
v 0.831470 -1.000000 0.555570
v 0.707107 -1.000000 0.707107
v 0.555570 -1.000000 0.831470
v 0.382683 -1.000000 0.923880
v 0.195090 -1.000000 0.980785
v -0.000000 -1.000000 1.000000
v -0.195091 -1.000000 0.980785
v -0.382684 -1.000000 0.923879
v -0.555571 -1.000000 0.831469
v -0.707107 -1.000000 0.707106
v -0.831470 -1.000000 0.555570
v -0.923880 -1.000000 0.382683
v -0.980785 -1.000000 0.195089
v -1.000000 -1.000000 -0.000001
v -0.980785 -1.000000 -0.195091
v -0.923879 -1.000000 -0.382684
v -0.831469 -1.000000 -0.555571
v -0.707106 -1.000000 -0.707108
v -0.555569 -1.000000 -0.831470
v -0.382682 -1.000000 -0.923880
v -0.195089 -1.000000 -0.980786
v 0.000000 -1.000000 -1.000000
v 0.195090 -1.000000 -0.980785
v 0.382683 -1.000000 -0.923880
v 0.555570 -1.000000 -0.831470
v 0.707107 -1.000000 -0.707107
v 0.831470 -1.000000 -0.555570
v 0.923880 -1.000000 -0.382683
v 0.980785 -1.000000 -0.195090
v 1.000000 -1.000000 -0.000000
v 0.980785 -1.000000 0.195090
v 0.923880 -1.000000 0.382683
v 0.831470 -1.000000 0.555570
v 0.707107 -1.000000 0.707107
v 0.555570 -1.000000 0.831470
v 0.382683 -1.000000 0.923880
v 0.195090 -1.000000 0.980785
v -0.000000 -1.000000 1.000000
v -0.195091 -1.000000 0.980785
v -0.382684 -1.000000 0.923879
v -0.555571 -1.000000 0.831469
v -0.707107 -1.000000 0.707106
v -0.831470 -1.000000 0.555570
v -0.923880 -1.000000 0.382683
v -0.980785 -1.000000 0.195089
v -1.000000 -1.000000 -0.000001
v -0.980785 -1.000000 -0.195091
v -0.923879 -1.000000 -0.382684
v -0.831469 -1.000000 -0.555571
v -0.707106 -1.000000 -0.707108
v -0.555569 -1.000000 -0.831470
v -0.382682 -1.000000 -0.923880
v -0.195089 -1.000000 -0.980786
vn 0.0000 0.4472 -0.8944
vn 0.0000 1.0000 0.0000
vn 0.1745 0.4472 -0.8772
vn 0.3423 0.4472 -0.8263
vn 0.4969 0.4472 -0.7437
vn 0.6324 0.4472 -0.6324
vn 0.7437 0.4472 -0.4969
vn 0.8263 0.4472 -0.3423
vn 0.8772 0.4472 -0.1745
vn 0.8944 0.4472 0.0000
vn 0.8772 0.4472 0.1745
vn 0.8263 0.4472 0.3423
vn 0.7437 0.4472 0.4969
vn 0.6324 0.4472 0.6324
vn 0.4969 0.4472 0.7437
vn 0.3423 0.4472 0.8263
vn 0.1745 0.4472 0.8772
vn 0.0000 0.4472 0.8944
vn -0.1745 0.4472 0.8772
vn -0.3423 0.4472 0.8263
vn -0.4969 0.4472 0.7437
vn -0.6324 0.4472 0.6324
vn -0.7437 0.4472 0.4969
vn -0.8263 0.4472 0.3423
vn -0.8772 0.4472 0.1745
vn -0.8944 0.4472 0.0000
vn -0.8772 0.4472 -0.1745
vn -0.8263 0.4472 -0.3423
vn -0.7437 0.4472 -0.4969
vn -0.6324 0.4472 -0.6324
vn -0.4969 0.4472 -0.7437
vn -0.3423 0.4472 -0.8263
vn -0.1745 0.4472 -0.8772
vn 0.0000 -1.0000 0.0000
usemtl None
s 1
f 1//1 10//2 2//3
f 2//3 10//2 3//4
f 3//4 10//2 4//5
f 4//5 10//2 5//6
f 5//6 10//2 6//7
f 6//7 10//2 7//8
f 7//8 10//2 8//9
f 8//9 10//2 9//10
f 9//10 10//2 11//11
f 11//11 10//2 12//12
f 12//12 10//2 13//13
f 13//13 10//2 14//14
f 14//14 10//2 15//15
f 15//15 10//2 16//16
f 16//16 10//2 17//17
f 17//17 10//2 18//18
f 18//18 10//2 19//19
f 19//19 10//2 20//20
f 20//20 10//2 21//21
f 21//21 10//2 22//22
f 22//22 10//2 23//23
f 23//23 10//2 24//24
f 24//24 10//2 25//25
f 25//25 10//2 26//26
f 26//26 10//2 27//27
f 27//27 10//2 28//28
f 28//28 10//2 29//29
f 29//29 10//2 30//30
f 30//30 10//2 31//31
f 31//31 10//2 32//32
f 32//32 10//2 33//33
f 33//33 10//2 1//1
f 49//34 57//34 41//34
f 65//34 34//34 35//34
f 35//34 36//34 37//34
f 37//34 38//34 39//34
f 39//34 40//34 37//34
f 41//34 42//34 43//34
f 43//34 44//34 41//34
f 45//34 46//34 49//34
f 47//34 48//34 49//34
f 49//34 50//34 51//34
f 51//34 52//34 49//34
f 53//34 54//34 55//34
f 55//34 56//34 57//34
f 57//34 58//34 59//34
f 59//34 60//34 61//34
f 61//34 62//34 65//34
f 63//34 64//34 65//34
f 65//34 35//34 41//34
f 37//34 40//34 41//34
f 41//34 44//34 45//34
f 46//34 47//34 49//34
f 49//34 52//34 53//34
f 53//34 55//34 57//34
f 57//34 59//34 65//34
f 62//34 63//34 65//34
f 35//34 37//34 41//34
f 41//34 45//34 49//34
f 49//34 53//34 57//34
f 59//34 61//34 65//34
f 65//34 41//34 57//34
